<?xml version="1.0" encoding="UTF-8" standalone="no"?>
<!-- Uploaded to: SVG Repo, www.svgrepo.com, Transformed by: SVG Repo Mixer Tools -->

<svg
   fill="#ffffff"
   width="800px"
   height="800px"
   viewBox="0 0 32 32"
   version="1.1"
   id="svg1"
   sodipodi:docname="discord.svg"
   inkscape:version="1.3.2 (091e20e, 2023-11-25, custom)"
   xmlns:inkscape="http://www.inkscape.org/namespaces/inkscape"
   xmlns:sodipodi="http://sodipodi.sourceforge.net/DTD/sodipodi-0.dtd"
   xmlns="http://www.w3.org/2000/svg"
   xmlns:svg="http://www.w3.org/2000/svg">
  <defs
     id="defs1" />
  <sodipodi:namedview
     id="namedview1"
     pagecolor="#505050"
     bordercolor="#eeeeee"
     borderopacity="1"
     inkscape:showpageshadow="0"
     inkscape:pageopacity="0"
     inkscape:pagecheckerboard="0"
     inkscape:deskcolor="#505050"
     inkscape:zoom="1.01625"
     inkscape:cx="400"
     inkscape:cy="400"
     inkscape:window-width="1920"
     inkscape:window-height="1009"
     inkscape:window-x="-8"
     inkscape:window-y="-8"
     inkscape:window-maximized="1"
     inkscape:current-layer="svg1" />
  <g
     id="SVGRepo_bgCarrier"
     stroke-width="0" />
  <g
     id="SVGRepo_tracerCarrier"
     stroke-linecap="round"
     stroke-linejoin="round" />
  <g
     id="SVGRepo_iconCarrier"
     transform="matrix(1.0664556,0,0,1.0664556,-1.0633227,-1.0627246)">
    <title
       id="title1">discord</title>
    <path
       d="m 20.992,20.163 c -1.511,-0.099 -2.699,-1.349 -2.699,-2.877 0,-0.051 0.001,-0.102 0.004,-0.153 v 0.007 c -0.003,-0.048 -0.005,-0.104 -0.005,-0.161 0,-1.525 1.19,-2.771 2.692,-2.862 h 0.008 c 1.509,0.082 2.701,1.325 2.701,2.847 0,0.062 -0.002,0.123 -0.006,0.184 V 17.14 c 0.003,0.05 0.005,0.109 0.005,0.168 0,1.523 -1.191,2.768 -2.693,2.854 h -0.008 z m -9.966,0 C 9.515,20.064 8.327,18.814 8.327,17.286 c 0,-0.051 10e-4,-0.102 0.004,-0.153 V 17.14 C 8.328,17.092 8.326,17.036 8.326,16.979 c 0,-1.525 1.19,-2.771 2.692,-2.862 h 0.008 c 1.509,0.082 2.701,1.325 2.701,2.847 0,0.062 -0.002,0.123 -0.006,0.184 V 17.14 c 0.003,0.048 0.005,0.104 0.005,0.161 0,1.525 -1.19,2.771 -2.692,2.862 z M 26.393,6.465 C 24.63,5.633 22.582,4.975 20.438,4.594 L 20.289,4.572 C 20.284,4.571 20.278,4.57 20.272,4.57 c -0.035,0 -0.065,0.019 -0.081,0.047 v 0 c -0.234,0.411 -0.488,0.924 -0.717,1.45 l -0.043,0.111 c -1.03,-0.165 -2.218,-0.259 -3.428,-0.259 -1.21,0 -2.398,0.094 -3.557,0.275 L 12.575,6.177 C 12.305,5.547 12.047,5.035 11.762,4.539 l 0.041,0.077 C 11.786,4.587 11.755,4.569 11.72,4.569 c -0.005,0 -0.011,0 -0.016,0.001 h 10e-4 C 9.412,4.973 7.363,5.63 5.449,6.527 L 5.6,6.463 C 5.583,6.47 5.569,6.482 5.56,6.497 v 0 c -2.854,4.041 -4.562,9.069 -4.562,14.496 0,0.907 0.048,1.802 0.141,2.684 L 1.13,23.567 c 0.003,0.029 0.018,0.053 0.039,0.07 v 0 c 2.14,1.601 4.628,2.891 7.313,3.738 l 0.176,0.048 c 0.008,0.003 0.018,0.004 0.028,0.004 0.032,0 0.06,-0.015 0.077,-0.038 v 0 c 0.535,-0.72 1.044,-1.536 1.485,-2.392 l 0.047,-0.1 c 0.006,-0.012 0.01,-0.027 0.01,-0.043 0,-0.041 -0.026,-0.075 -0.062,-0.089 H 10.242 C 9.33,24.413 8.559,24.038 7.825,23.608 L 7.902,23.65 C 7.873,23.633 7.854,23.602 7.854,23.567 c 0,-0.031 0.015,-0.059 0.038,-0.076 v 0 c 0.157,-0.118 0.315,-0.24 0.465,-0.364 0.016,-0.013 0.037,-0.021 0.059,-0.021 0.014,0 0.027,0.003 0.038,0.008 H 8.453 c 2.208,1.061 4.8,1.681 7.536,1.681 2.736,0 5.329,-0.62 7.643,-1.727 l -0.107,0.046 c 0.012,-0.006 0.025,-0.009 0.04,-0.009 0.022,0 0.043,0.008 0.059,0.021 v 0 c 0.15,0.124 0.307,0.248 0.466,0.365 0.023,0.018 0.038,0.046 0.038,0.077 0,0.035 -0.019,0.065 -0.046,0.082 v 0 c -0.661,0.395 -1.432,0.769 -2.235,1.078 l -0.105,0.036 c -0.036,0.014 -0.062,0.049 -0.062,0.089 0,0.016 0.004,0.031 0.011,0.044 v -10e-4 c 0.501,0.96 1.009,1.775 1.571,2.548 l -0.04,-0.057 c 0.017,0.024 0.046,0.04 0.077,0.04 0.01,0 0.02,-0.002 0.029,-0.004 h -10e-4 c 2.865,-0.892 5.358,-2.182 7.566,-3.832 l -0.065,0.047 c 0.022,-0.016 0.036,-0.041 0.039,-0.069 v 0 c 0.087,-0.784 0.136,-1.694 0.136,-2.615 0,-5.415 -1.712,-10.43 -4.623,-14.534 l 0.052,0.078 C 26.424,6.482 26.41,6.469 26.394,6.462 v 0 z"
       id="path1" />
  </g>
</svg>
